<svg fill="none" height="44" viewBox="0 0 44 44" width="44" xmlns="http://www.w3.org/2000/svg"><g stroke="currentColor" stroke-width="2"><path d="m3.09375 23.7188 12.03125-12.0313 2.5781 2.5781m21.4844-9.4531-6.0156 6.0156"/><path d="m29.7344 4.8125h9.4531v9.4531"/><path d="m21.1406 19.4219c0 1.5954.6338 3.1255 1.762 4.2537 1.1281 1.1281 2.6582 1.7619 4.2537 1.7619 1.5954 0 3.1255-.6338 4.2536-1.7619 1.1282-1.1282 1.762-2.6583 1.762-4.2537 0-1.5955-.6338-3.1256-1.762-4.2537-1.1281-1.1282-2.6582-1.7619-4.2536-1.762-1.5955.0001-3.1256.6338-4.2537 1.762-1.1282 1.1281-1.762 2.6582-1.762 4.2537z"/><path d="m39.1875 33.813c-3.6564-2.1152-7.8071-3.2258-12.0312-3.2192-4.3829 0-8.4907 1.1722-12.0313 3.2192v5.3745h24.0625z"/></g></svg>