<svg fill="none" height="44" viewBox="0 0 44 44" width="44" xmlns="http://www.w3.org/2000/svg"><g stroke="currentColor" stroke-width="2"><path d="m32.5737 20.8915c.507.5069.9092 1.1087 1.1836 1.7711.2744.6623.4156 1.3723.4156 2.0892s-.1412 1.4269-.4156 2.0892c-.2744.6624-.6766 1.2642-1.1836 1.7711l-.0172.0172-10.5565 10.5583-10.56-10.56-.0155-.0155c-.5189-.5184-.9279-1.1362-1.2025-1.8163-.27456-.6801-.40913-1.4087-.39564-2.142.0135-.7334.17474-1.4565.47424-2.1261.2994-.6695.7308-1.2718 1.2685-1.7708.5376-.499 1.1703-.8844 1.8603-1.1332.69-.2487 1.4231-.3557 2.1554-.3146.7324.0411 1.4489.2296 2.1067.554.6578.3245 1.2434.7783 1.7217 1.3343l2.5868 2.5885 2.4922-2.4922c.4831-.5899 1.0845-1.072 1.7653-1.4152.6808-.3433 1.426-.5401 2.1875-.5779.7615-.0377 1.5225.0845 2.2339.3588s1.3575.6946 1.8965 1.2338z"/><path d="m16.842 9.96875c0 1.36755.5433 2.67905 1.5103 3.64605s2.2785 1.5102 3.646 1.5102 2.679-.5432 3.646-1.5102 1.5102-2.2785 1.5102-3.64605c0-1.36752-.5432-2.67903-1.5102-3.64602-.967-.96698-2.2785-1.51023-3.646-1.51023s-2.679.54325-3.646 1.51023c-.967.96699-1.5103 2.2785-1.5103 3.64602z"/></g></svg>