<svg fill="none" height="68" viewBox="0 0 280 68" width="280" xmlns="http://www.w3.org/2000/svg"><g fill="#00a8af"><path d="m131.283 53.8335h-7.699c-.706 0-1.091-.4491-1.091-1.2832v-2.7588c0-.834.385-1.2831 1.091-1.2831h7.699v1.0906h-7.507c-.257 0-.385.1284-.385.385v2.3738c0 .2567.128.4491.321.4491h7.506v1.0266zm8.276 0h-1.091v-4.2345h-4.555v-1.0906h10.201v1.0906h-4.555zm14.756.0641h-7.635v-1.0907h7.507c.256 0 .321-.1283.321-.3849v-.6416h-6.737c-.706 0-1.091-.4491-1.091-1.2831v-1.9248h.899v1.7323c0 .2566.128.3849.385.3849h6.544v-2.1172h.898v4.042c.064.834-.321 1.2831-1.091 1.2831zm5.004-1.0907h6.929v-2.7587c0-.3208-.128-.4492-.384-.4492h-6.224c-.256 0-.385.1284-.385.385v2.8229zm-.898-3.0154c0-.834.385-1.219 1.091-1.219h6.544c.706 0 1.091.4491 1.091 1.2832v3.0154h.898v1.0907h-10.586v-1.0266h.898c.064-.1283.064-3.1437.064-3.1437zm12.575 4.042h-.898v-5.3251h.898v4.0419l6.929-4.0419h.898v5.3251h-.898v-4.1061zm10.458 0h1.091l1.09-1.7323h5.646v1.7323h.898v-5.3251h-7.699c-.705 0-1.09.4491-1.09 1.2831v1.0907c0 .8341.385 1.2832 1.09 1.2832zm1.347-4.2345h6.544v1.4757h-6.608c-.257 0-.385-.1283-.385-.4491v-.5774c.064-.3208.193-.4492.449-.4492zm20.851 3.2079h6.929v-2.7587c0-.3208-.128-.4492-.385-.4492h-6.223c-.256 0-.385.1284-.385.385v2.8229zm-.962-3.0154c0-.834.385-1.219 1.091-1.219h6.544c.706 0 1.09.4491 1.09 1.2832v3.0154h.899v1.0907h-10.586v-1.0266h.898zm12.639 4.042h-.898v-5.3251h.898v4.0419l6.929-4.0419h.898v5.3251h-.898v-4.1061zm18.093 0h-7.635v-1.0907h7.506c.257 0 .385-.1283.385-.385v-.2566c0-.2566-.128-.3849-.385-.3849h-7.314v-1.0907h7.314c.257 0 .385-.1283.385-.4491v-.1925c0-.2566-.128-.385-.385-.385h-7.506v-1.0906h7.699c.705 0 1.09.3849 1.09 1.1548v.7057c0 .4491-.192.7058-.513.7699.385.0642.578.3208.513.7058v.6415c0 .9624-.385 1.3474-1.154 1.3474zm12.51 0h-.898v-1.7323h-6.929v1.7323h-.898v-3.9778c0-.8982.385-1.3473 1.091-1.3473h6.544c.705 0 1.09.4491 1.09 1.3473zm-7.827-2.7588h6.929v-1.0265c0-.2567-.128-.4492-.385-.4492h-6.223c-.257 0-.385.1284-.385.4492zm11.292 2.7588h-.898v-5.3251h.898v4.0419l6.929-4.0419h.898v5.3251h-.898v-4.1061c0 .0641-6.929 4.1061-6.929 4.1061zm2.566-5.7101h1.861v.8341h-1.861zm16.681 5.7101h-.898v-2.1172h-6.929v2.1172h-.898v-5.3251h.898v2.1172h6.929v-2.1172h.898zm11.356 0h-.898v-1.7323h-6.929v1.7323h-.898v-3.9778c0-.8982.385-1.3473 1.09-1.3473h6.544c.706 0 1.091.4491 1.091 1.3473zm-7.891-2.7588h6.929v-1.0265c0-.2567-.129-.4492-.385-.4492h-6.224c-.256 0-.385.1284-.385.4492v1.0265z"/><path d="m187.356 41.1295h-3.464v-6.4806h-26.176v6.4806h-3.401v-13.0896c0-4.684 1.925-7.0581 6.095-7.0581h20.916c3.913 0 6.095 3.1441 6.095 7.0581zm-29.576-10.523h26.176v-1.9249c0-2.1175 0-3.6574-2.759-3.6574h-20.402c-2.566 0-3.015 1.4116-3.015 3.7215z"/><path d="m194.157 29.0666h23.289c1.668 0 2.887-.8342 2.887-1.925.065-1.8608-1.09-2.0533-3.336-2.0533h-22.84zm23.289 8.0847c1.476 0 2.887-.5775 2.887-2.1174 0-1.0908-.834-1.925-2.822-1.925h-23.418v4.0424zm.642 3.914-27.395.0642v-20.0835h27.138c3.272 0 6.031 1.6683 6.031 4.8123v1.7966c0 1.54-.577 2.8233-2.566 3.4649 2.053.5133 2.502 1.54 2.566 3.5291v1.6682c-.064 3.3366-2.694 4.7482-5.774 4.7482z"/><path d="m251.129 21.046h21.044c3.593 0 7.314 4.1065 7.314 8.4055v11.678h-3.465v-11.1005c0-2.3099-2.566-5.0048-4.555-5.0048h-20.274z"/><path d="m151.172 41.1295h-22.007c-3.785 0-6.351-2.7591-6.351-7.2506v-12.8329h3.464v12.1912c0 2.4383 1.219 3.8499 3.593 3.8499h21.236z"/><path d="m240.094 21.046h1.925c3.657 0 7.314 4.1065 7.314 8.4055v11.678h-3.465v-11.1005c0-2.4382-2.63-5.0048-4.555-5.0048h-1.219z"/><path clip-rule="evenodd" d="m91.954 66.7311c0 .5775-.5133 1.0267-1.1549 1.0267-.6415 0-1.1548-.4492-1.1548-1.0267 0-2.8232 0-5.7748 0-8.8547 0-8.1489.0642-16.7469-.0642-24.3825-.3207-9.4964-3.272-17.5169-8.7896-23.0351-5.1967-5.13314-12.639-8.14888-22.3268-8.14888-8.8538 0-17.9 0-27.2029-.19249-.6416 0-1.1548-.51332-1.1548-1.0908 0-.577479.5774-1.02663 1.219-1.02663 9.6236.192494 18.2208.192493 27.1387.192493 10.586.320823 18.4774 3.208227 24.0591 8.854707 5.9025 5.9031 9.2387 14.3729 9.4312 24.3825.1283 8.1489.0641 16.2978.0641 24.4467-.0641 3.0799-.0641 6.0315-.0641 8.8547zm-91.9379601-58.06888c0-.64165.5132631-1.15497 1.1548401-1.15497.64158 0 1.15483.51332 1.15483 1.15497v8.46968c0 6.2882-.06415 11.8063.06416 19.1852 0 6.9298 1.79642 12.9613 6.15914 18.4794 3.91359 4.9407 9.68779 8.8548 17.19429 10.908.6415.1925 1.0265.8342.834 1.4116-.1925.6417-.834 1.0267-1.4115.8342-8.0197-2.1816-14.1788-6.4165-18.41321-11.7421-4.55519-5.7749-6.864866-12.7688-6.6723934-19.8911-.1283153-7.3789-.0641567-12.897-.0641567-19.1852 0-2.6307 0-5.3898 0-8.46968zm34.1960601 58.06888c0 .6417-.5133 1.155-1.1549 1.155-.6415 0-1.1548-.5133-1.1548-1.155 0-3.914 0-7.9564 0-12.1271 0-7.3789.0642-14.9503 0-21.9442-.0642-8.0848-3.7211-15.592-9.2387-21.1743-5.5817-5.64652-13.15233-9.17558-20.91541-9.17558-.64157 0-1.15483-.51331-1.15483-1.15496 0-.641644.51326-1.15496 1.15483-1.15496 8.40461 0 16.55271 3.84988 22.58351 9.88134 5.9025 5.96726 9.752 14.05206 9.8803 22.77846.0641 6.9939.0641 14.5653 0 21.9442.0641 4.0424 0 8.0848 0 12.1271zm24.0591-28.9382c.0642-8.4055-2.1814-14.8861-6.5441-19.5702-4.491-4.8765-11.8692-7.828-20.6588-9.1755-.6415-.06416-1.0906-.70581-1.0265-1.34745.0642-.64165.7058-1.0908 1.3473-1.02663 9.3671 1.34745 17.1943 4.61988 22.0703 9.88138 4.5552 4.9406 6.9932 11.9346 7.1215 19.9551.1924 8.0206.9623 11.678 6.0308 17.9661 3.9778 4.9407 9.9444 8.6622 17.3867 10.9722.6416.1925.9624.8341.7699 1.4757-.1925.6417-.834.9625-1.4756.77-7.8914-2.5024-14.1789-6.4164-18.5416-11.7421-3.8494-4.8123-6.5441-11.8704-6.4799-18.1586z" fill-rule="evenodd"/></g></svg>