<svg xmlns="http://www.w3.org/2000/svg" xmlns:xlink="http://www.w3.org/1999/xlink"><defs><style>
    .sprite-symbol-usage {display: none;}
    .sprite-symbol-usage:target {display: inline;}
  </style><symbol fill="none" viewBox="0 0 33 36" id="arrow-right"><g stroke="currentColor" stroke-width="3"><path d="m13.714 2 16.286 16.0009-16.286 15.9991" /><path d="m-.0000956 18.001h29.9980956" /></g></symbol><symbol fill="none" viewBox="0 0 44 44" id="benefits_01"><g stroke="currentColor" stroke-width="2"><path d="m3.09375 23.7188 12.03125-12.0313 2.5781 2.5781m21.4844-9.4531-6.0156 6.0156" /><path d="m29.7344 4.8125h9.4531v9.4531" /><path d="m21.1406 19.4219c0 1.5954.6338 3.1255 1.762 4.2537 1.1281 1.1281 2.6582 1.7619 4.2537 1.7619 1.5954 0 3.1255-.6338 4.2536-1.7619 1.1282-1.1282 1.762-2.6583 1.762-4.2537 0-1.5955-.6338-3.1256-1.762-4.2537-1.1281-1.1282-2.6582-1.7619-4.2536-1.762-1.5955.0001-3.1256.6338-4.2537 1.762-1.1282 1.1281-1.762 2.6582-1.762 4.2537z" /><path d="m39.1875 33.813c-3.6564-2.1152-7.8071-3.2258-12.0312-3.2192-4.3829 0-8.4907 1.1722-12.0313 3.2192v5.3745h24.0625z" /></g></symbol><symbol fill="none" viewBox="0 0 44 44" id="benefits_02"><g stroke="currentColor" stroke-width="2"><path d="m3.16553 40.8344 18.37497-22.05 19.2938 22.05" /><path d="m21.5405 18.7843v-6.4312m0 0v-9.18757h12.8626v9.18757z" /><path d="m12.353 27.9717 5.5124 5.5125 3.675-3.675 3.6751 3.675 5.5125-5.5125" /></g></symbol><symbol fill="none" viewBox="0 0 44 44" id="benefits_03"><g stroke="currentColor" stroke-width="2"><path d="m10.7188 21.0598v17.8623" /><path d="m36.1017 38.9221h-32.90395v-17.8623h7.52095l4.7006-15.98192h1.6921c3.7384-.00017 6.7689 3.0305 6.7689 6.76882v4.5125h16.922z" /></g></symbol><symbol fill="none" viewBox="0 0 44 44" id="benefits_04"><g stroke="currentColor" stroke-width="2"><path d="m32.5737 20.8915c.507.5069.9092 1.1087 1.1836 1.7711.2744.6623.4156 1.3723.4156 2.0892s-.1412 1.4269-.4156 2.0892c-.2744.6624-.6766 1.2642-1.1836 1.7711l-.0172.0172-10.5565 10.5583-10.56-10.56-.0155-.0155c-.5189-.5184-.9279-1.1362-1.2025-1.8163-.27456-.6801-.40913-1.4087-.39564-2.142.0135-.7334.17474-1.4565.47424-2.1261.2994-.6695.7308-1.2718 1.2685-1.7708.5376-.499 1.1703-.8844 1.8603-1.1332.69-.2487 1.4231-.3557 2.1554-.3146.7324.0411 1.4489.2296 2.1067.554.6578.3245 1.2434.7783 1.7217 1.3343l2.5868 2.5885 2.4922-2.4922c.4831-.5899 1.0845-1.072 1.7653-1.4152.6808-.3433 1.426-.5401 2.1875-.5779.7615-.0377 1.5225.0845 2.2339.3588s1.3575.6946 1.8965 1.2338z" /><path d="m16.842 9.96875c0 1.36755.5433 2.67905 1.5103 3.64605s2.2785 1.5102 3.646 1.5102 2.679-.5432 3.646-1.5102 1.5102-2.2785 1.5102-3.64605c0-1.36752-.5432-2.67903-1.5102-3.64602-.967-.96698-2.2785-1.51023-3.646-1.51023s-2.679.54325-3.646 1.51023c-.967.96699-1.5103 2.2785-1.5103 3.64602z" /></g></symbol><symbol fill="none" viewBox="0 0 44 44" id="benefits_05"><g stroke="currentColor" stroke-width="2"><path d="m31.4012 40.8023h-28.20345v-37.60455h37.60455v28.20345z" /><path d="m29.521 40.8024v-11.2814h11.2814" /></g></symbol><symbol fill="none" viewBox="0 0 38 38" id="close"><path d="m10.8808 2.76168-8.11908 8.11912 8.11908 8.1192-8.11908 8.1192 8.11908 8.1191 8.1192-8.1191 8.1193 8.1191 8.1191-8.1191-8.1191-8.1192 8.1191-8.1192-8.1191-8.11912-8.1193 8.11912z" stroke="currentColor" stroke-width="2" /></symbol><symbol fill="none" viewBox="0 0 38 38" id="menu"><g stroke="currentColor" stroke-width="2"><path d="m2.76172 2.76168h32.47668v32.47662h-32.47668z" /><path d="m11.2866 18.594h-.812v.812h.812z" /><path d="m19.4057 18.594h-.8119v.812h.8119z" /><path d="m27.5248 18.594h-.8119v.812h.8119z" /></g></symbol></defs><use id="arrow-right-usage" xlink:href="#arrow-right" class="sprite-symbol-usage" /><use id="benefits_01-usage" xlink:href="#benefits_01" class="sprite-symbol-usage" /><use id="benefits_02-usage" xlink:href="#benefits_02" class="sprite-symbol-usage" /><use id="benefits_03-usage" xlink:href="#benefits_03" class="sprite-symbol-usage" /><use id="benefits_04-usage" xlink:href="#benefits_04" class="sprite-symbol-usage" /><use id="benefits_05-usage" xlink:href="#benefits_05" class="sprite-symbol-usage" /><use id="close-usage" xlink:href="#close" class="sprite-symbol-usage" /><use id="menu-usage" xlink:href="#menu" class="sprite-symbol-usage" /></svg>